<?xml version="1.0" standalone="no"?>
<!DOCTYPE svg PUBLIC "-//W3C//DTD SVG 20010904//EN"
 "http://www.w3.org/TR/2001/REC-SVG-20010904/DTD/svg10.dtd">
<svg version="1.0" xmlns="http://www.w3.org/2000/svg"
 width="1024.000000pt" height="1024.000000pt" viewBox="0 0 1024.000000 1024.000000"
 preserveAspectRatio="xMidYMid meet">

<g transform="translate(0.000000,1024.000000) scale(0.100000,-0.100000)"
fill="#000000" stroke="none">
<path d="M3740 7080 c-193 -25 -406 -92 -605 -190 -165 -81 -248 -135 -382
-247 -225 -187 -362 -362 -515 -653 -216 -412 -257 -972 -106 -1423 100 -298
250 -540 474 -762 171 -170 308 -268 524 -375 251 -125 500 -186 790 -197 557
-19 1068 198 1440 612 35 39 81 97 102 130 45 68 64 84 83 64 15 -17 155 -247
270 -443 166 -285 218 -348 340 -405 255 -122 514 -23 669 254 16 28 54 91 86
140 31 50 75 119 97 155 22 36 98 157 168 270 71 113 156 250 190 305 34 55
101 163 150 240 48 77 136 219 195 315 111 181 247 398 332 531 56 87 107 202
134 304 15 57 19 103 18 245 0 157 -3 185 -27 275 -96 356 -383 667 -726 784
-121 41 -201 54 -341 55 -152 0 -235 -13 -364 -55 -413 -138 -702 -485 -762
-914 -33 -244 -4 -447 89 -618 19 -34 112 -190 207 -347 95 -157 203 -337 240
-400 95 -163 137 -230 156 -252 17 -18 17 -21 -3 -61 -11 -23 -45 -81 -75
-127 -30 -47 -78 -127 -107 -178 -29 -51 -58 -91 -63 -90 -6 2 -29 34 -52 71
-22 36 -75 122 -117 189 -42 68 -126 204 -186 303 -60 99 -159 261 -220 360
-61 99 -124 208 -141 241 -99 197 -237 312 -418 349 -72 14 -150 16 -625 13
-411 -3 -553 -7 -579 -17 -125 -46 -189 -101 -241 -207 -32 -64 -34 -75 -34
-169 0 -89 3 -107 28 -161 30 -64 96 -136 157 -171 86 -48 79 -47 595 -53 468
-5 490 -6 487 -23 -2 -10 -40 -78 -84 -150 -139 -224 -342 -405 -558 -498
-274 -118 -561 -125 -849 -20 -272 99 -504 311 -645 588 -84 164 -112 311
-103 537 4 83 13 178 20 211 76 325 300 620 587 774 79 42 156 70 275 99 90
22 394 24 470 3 155 -42 198 -57 279 -97 48 -25 124 -68 168 -96 120 -77 178
-98 273 -98 206 0 354 142 372 358 10 110 -37 232 -112 294 -47 39 -295 203
-345 228 -171 86 -334 143 -518 181 -110 23 -448 34 -562 19z m3450 -694 c75
-19 87 -24 152 -68 104 -70 167 -171 189 -306 16 -95 -1 -188 -51 -286 -49
-95 -368 -626 -391 -650 -15 -16 -21 -17 -33 -6 -9 7 -16 16 -16 21 0 4 -29
54 -63 111 -66 106 -220 366 -255 428 -10 19 -29 51 -41 71 -63 107 -80 263
-40 381 76 227 318 361 549 304z"/>
</g>
</svg>
